<svg xmlns="http://www.w3.org/2000/svg" width="1024" height="1024" viewBox="0 0 1024 1024">
 <defs><linearGradient id="bg" x1="0" y1="0" x2="0" y2="1"><stop offset="0" stop-color="#51CF66"/><stop offset="1" stop-color="#2F9E44"/></linearGradient><linearGradient id="bag" x1="0" y1="0" x2="0" y2="1"><stop offset="0" stop-color="#FFFFFF"/><stop offset="1" stop-color="#FFF3E0"/></linearGradient><mask id="h"><rect x="-300" y="-300" width="1700" height="1700" fill="#fff"/><rect x="446" y="432" width="132" height="46" rx="23" fill="#000"/></mask></defs>
 <rect width="1024" height="1024" fill="url(#bg)"/>
 <g mask="url(#h)"><rect x="316" y="398" width="392" height="376" rx="48" fill="url(#bag)"/><rect x="316" y="398" width="392" height="88" rx="24" fill="#EFE2C6"/></g>
 <g transform="translate(702,708) scale(1.1) translate(-702,-708)"><path d="M604 624 Q604 600 628 600 L776 600 Q800 600 800 624 L800 703 C800 775 754 806 702 816 C650 806 604 775 604 703 Z" fill="#1F6F30" stroke="#FFFFFF" stroke-width="18"/><path d="M666 700 l22 24 l54 -62" fill="none" stroke="#FFFFFF" stroke-width="22" stroke-linecap="round" stroke-linejoin="round"/></g>
</svg>
